<svg xmlns="http://www.w3.org/2000/svg" xmlns:xlink="http://www.w3.org/1999/xlink" width="32" height="25" version="1.1" style=""><rect id="backgroundrect" width="100%" height="100%" x="0" y="0" fill="none" stroke="none"/>

<g class="currentLayer" style=""><title>Layer 1</title><g id="surface1" class="" fill="#d1b1ff" fill-opacity="1">
<path style="stroke: none; fill-rule: nonzero;" d="M 14.449219 1.726562 C 12.410156 4.890625 12.339844 5.109375 13.066406 5.917969 C 13.683594 6.617188 13.71875 6.582031 14.554688 5.332031 C 15.027344 4.632812 15.539062 4.042969 15.683594 4.042969 C 15.828125 4.042969 16.375 4.558594 16.921875 5.21875 C 17.828125 6.359375 17.9375 6.398438 18.484375 5.84375 C 19.027344 5.292969 19.066406 5.148438 18.449219 4.007812 C 17.574219 2.242188 16.082031 0 15.792969 0 C 15.695312 0 15.066406 0.773438 14.449219 1.726562 Z M 14.449219 1.726562 " id="svg_1" fill="#d1b1ff" fill-opacity="1"/>
<path style="stroke: none; fill-rule: nonzero;" d="M 4.664062 4.007812 C 4.082031 5 5.757812 10.441406 7.066406 11.910156 C 7.683594 12.574219 7.71875 12.535156 7.9375 11.25 C 8.15625 10.109375 8.300781 10 8.882812 10.332031 C 9.464844 10.660156 9.574219 10.550781 9.574219 8.898438 C 9.574219 7.132812 9.5 7.023438 7.683594 5.625 C 5.210938 3.75 4.957031 3.601562 4.664062 4.007812 Z M 4.664062 4.007812 " id="svg_2" fill="#d1b1ff" fill-opacity="1"/>
<path style="stroke: none; fill-rule: nonzero;" d="M 24.519531 5.367188 C 22.230469 7.167969 22.191406 7.167969 22.15625 9.082031 C 22.121094 10.808594 22.15625 10.957031 22.703125 10.441406 C 23.574219 9.667969 23.757812 9.816406 23.757812 11.214844 C 23.757812 11.910156 23.867188 12.5 24.046875 12.5 C 24.519531 12.5 26.300781 9.449219 26.703125 7.976562 C 26.914062 7.027344 27 6.046875 26.957031 5.074219 L 26.847656 3.566406 Z M 24.519531 5.367188 " id="svg_3" fill="#d1b1ff" fill-opacity="1"/>
<path style="stroke: none; fill-rule: nonzero;" d="M 10.882812 6.066406 C 10.484375 7.167969 10.664062 10.882812 11.136719 11.542969 C 11.574219 12.132812 11.71875 11.984375 12.410156 9.890625 L 13.210938 7.535156 L 12.15625 6.507812 C 11.285156 5.589844 11.101562 5.550781 10.882812 6.066406 Z M 10.882812 6.066406 " id="svg_4" fill="#d1b1ff" fill-opacity="1"/>
<path style="stroke: none; fill-rule: nonzero;" d="M 19.609375 6.582031 L 18.59375 7.683594 L 19.246094 9.632812 C 20.121094 12.167969 20.375 12.464844 20.847656 11.25 C 21.246094 10.148438 21.285156 7.683594 20.882812 6.324219 L 20.664062 5.476562 Z M 19.609375 6.582031 " id="svg_5" fill="#d1b1ff" fill-opacity="1"/>
<path style="stroke: none; fill-rule: nonzero;" d="M 14.519531 7.792969 C 13.285156 9.925781 12.847656 11.214844 12.847656 12.609375 C 12.847656 14.964844 14.554688 16.101562 17.066406 15.367188 C 18.484375 15 18.847656 14.082031 18.554688 11.542969 C 18.375 9.890625 16.703125 6.617188 15.867188 6.359375 C 15.648438 6.285156 15.027344 6.910156 14.519531 7.792969 Z M 14.519531 7.792969 " id="svg_6" fill="#d1b1ff" fill-opacity="1"/>
<path style="stroke: none; fill-rule: nonzero;" d="M 8.847656 12.5 C 8.847656 14.523438 11.101562 16.910156 12.957031 16.910156 L 14.082031 16.910156 L 12.921875 15.773438 C 12.265625 15.148438 11.757812 14.410156 11.757812 14.15625 C 11.757812 13.898438 11.101562 13.273438 10.300781 12.71875 C 8.882812 11.800781 8.847656 11.765625 8.847656 12.5 Z M 8.847656 12.5 " id="svg_7" fill="#d1b1ff" fill-opacity="1"/>
<path style="stroke: none; fill-rule: nonzero;" d="M 21.511719 12.609375 C 20.75 13.050781 20.132812 13.640625 20.132812 13.933594 C 20.132812 14.226562 19.550781 15 18.820312 15.660156 L 17.539062 16.910156 L 18.484375 16.910156 C 20.011719 16.910156 21.5 15.808594 22.339844 14.082031 C 22.738281 13.199219 23.027344 12.351562 22.957031 12.167969 C 22.882812 11.984375 22.238281 12.207031 21.511719 12.609375 Z M 21.511719 12.609375 " id="svg_8" fill="#d1b1ff" fill-opacity="1"/>
<path style="stroke: none; fill-rule: nonzero;" d="M 2.664062 12.464844 C 2.664062 13.160156 5.648438 16.175781 7.027344 16.875 C 8.628906 17.71875 10.921875 18.160156 11.175781 17.683594 C 11.320312 17.5 11.101562 17.242188 10.703125 17.09375 C 10.011719 16.875 7.539062 14.300781 6.847656 13.089844 C 6.375 12.28125 2.664062 11.726562 2.664062 12.464844 Z M 2.664062 12.464844 " id="svg_9" fill="#d1b1ff" fill-opacity="1"/>
<path style="stroke: none; fill-rule: nonzero;" d="M 25.511719 12.574219 C 25.007812 13.097656 24.546875 13.664062 24.132812 14.265625 C 23.511719 15.148438 22.75 15.917969 21.875 16.542969 C 21.113281 17.132812 20.605469 17.683594 20.785156 17.792969 C 21.257812 18.089844 24.203125 17.28125 25.476562 16.507812 C 26.675781 15.734375 29.222656 12.976562 29.222656 12.425781 C 29.210938 11.949219 26.121094 12.09375 25.511719 12.574219 Z M 25.511719 12.574219 " id="svg_10" fill="#d1b1ff" fill-opacity="1"/>
<path style="stroke: none; fill-rule: nonzero;" d="M 1.683594 17.390625 C -0.460938 18.199219 -0.460938 18.601562 1.574219 19.117188 C 4.300781 19.78125 8.15625 19.59375 8.121094 18.824219 C 8.082031 18.382812 4.703125 16.910156 3.757812 16.949219 C 3.050781 17.003906 2.351562 17.152344 1.683594 17.390625 Z M 1.683594 17.390625 " id="svg_11" fill="#d1b1ff" fill-opacity="1"/>
<path style="stroke: none; fill-rule: nonzero;" d="M 25.394531 17.757812 C 24.59375 18.199219 23.867188 18.601562 23.757812 18.675781 C 23.648438 18.75 23.828125 18.933594 24.121094 19.117188 C 25.320312 19.890625 32.410156 19.15625 31.902344 18.34375 C 31.574219 17.757812 29.175781 16.910156 27.972656 16.910156 C 27.070312 17.035156 26.195312 17.320312 25.394531 17.757812 Z M 25.394531 17.757812 " id="svg_12" fill="#d1b1ff" fill-opacity="1"/>
<path style="stroke: none; fill-rule: nonzero;" d="M 14.082031 18.199219 C 13.679688 18.816406 13.558594 19.582031 13.757812 20.292969 C 14.082031 21.875 15.394531 25 15.71875 25 C 16.230469 25 17.683594 21.582031 17.828125 20.035156 C 18.046875 18.199219 17.355469 17.28125 15.757812 17.28125 C 15.074219 17.25 14.433594 17.605469 14.082031 18.199219 Z M 14.082031 18.199219 " id="svg_13" fill="#d1b1ff" fill-opacity="1"/>
<path style="stroke: none; fill-rule: nonzero;" d="M 10.847656 18.824219 C 10.179688 18.984375 9.523438 19.191406 8.882812 19.449219 C 8.046875 19.890625 6.957031 21.542969 7.101562 22.132812 C 7.394531 23.566406 12.847656 20.550781 12.847656 18.96875 C 12.847656 18.640625 12.738281 18.417969 12.59375 18.417969 C 12.449219 18.417969 11.648438 18.640625 10.847656 18.824219 Z M 10.847656 18.824219 " id="svg_14" fill="#d1b1ff" fill-opacity="1"/>
<path style="stroke: none; fill-rule: nonzero;" d="M 18.8125 18.785156 C 18.230469 19.742188 21.972656 22.425781 23.902344 22.425781 C 25.066406 22.425781 25.066406 22.207031 23.9375 20.476562 C 23.210938 19.449219 22.773438 19.117188 21.9375 19.117188 C 21.269531 19.109375 20.605469 18.984375 19.972656 18.75 C 19.355469 18.53125 18.992188 18.53125 18.8125 18.785156 Z M 18.8125 18.785156 " id="svg_15" fill="#d1b1ff" fill-opacity="1"/>
</g></g></svg>