<?xml version="1.0" standalone="no"?>
<!DOCTYPE svg PUBLIC "-//W3C//DTD SVG 20010904//EN"
 "http://www.w3.org/TR/2001/REC-SVG-20010904/DTD/svg10.dtd">
<svg version="1.0" xmlns="http://www.w3.org/2000/svg"
 width="704.000000pt" height="704.000000pt" viewBox="0 0 704.000000 704.000000"
 preserveAspectRatio="xMidYMid meet">
<metadata>
Created by potrace 1.11, written by Peter Selinger 2001-2013
</metadata>
<g transform="translate(0.000000,704.000000) scale(0.100000,-0.100000)"
fill="#000000" stroke="none">
<path d="M3418 6202 c-126 -135 -483 -677 -587 -891 -54 -113 -66 -201 -34
-259 44 -79 168 -202 204 -202 31 0 78 50 176 189 158 223 243 321 280 321 21
0 185 -162 295 -292 99 -118 144 -160 185 -172 35 -11 87 20 149 87 57 62 84
109 84 147 0 75 -230 505 -433 810 -133 199 -225 310 -258 310 -9 0 -37 -22
-61 -48z"/>
<path d="M5630 5259 c-536 -410 -657 -517 -706 -623 -35 -78 -46 -177 -48
-441 -1 -321 6 -332 135 -224 83 69 117 89 154 89 43 0 54 -46 65 -258 11
-227 25 -282 75 -282 85 0 421 539 548 881 75 199 108 510 88 819 -13 195 -19
250 -30 250 -3 0 -130 -95 -281 -211z"/>
<path d="M1030 5392 c-20 -20 -31 -44 -36 -77 -43 -290 194 -1096 448 -1522
64 -107 167 -225 208 -238 34 -11 48 11 71 111 75 331 81 346 133 352 15 2 56
-10 93 -27 79 -37 107 -39 128 -7 25 38 38 195 32 391 -10 339 -26 360 -547
747 -309 229 -420 298 -475 298 -16 0 -38 -12 -55 -28z"/>
<path d="M4380 4883 c-90 -93 -192 -201 -228 -241 l-65 -72 63 -183 c102 -297
187 -530 223 -609 78 -170 136 -181 201 -37 62 135 89 319 90 604 0 222 -12
330 -56 510 -43 177 -48 195 -57 195 -5 0 -82 -75 -171 -167z"/>
<path d="M2422 4988 c-50 -64 -71 -176 -79 -428 -9 -300 17 -592 67 -754 24
-76 78 -146 114 -146 56 0 84 61 256 561 l132 383 -171 168 c-94 93 -190 182
-213 198 -43 31 -89 39 -106 18z"/>
<path d="M3433 4844 c-94 -56 -240 -267 -392 -568 -165 -324 -233 -583 -218
-830 19 -322 186 -532 469 -590 140 -29 279 -18 468 35 119 34 169 60 228 119
96 96 127 226 119 490 -7 218 -25 326 -81 494 -122 363 -339 738 -490 848 -21
15 -44 28 -50 28 -6 0 -30 -12 -53 -26z"/>
<path d="M1949 3618 c-18 -34 -6 -220 21 -303 111 -351 452 -683 769 -751 64
-13 361 -20 361 -8 0 3 -87 92 -194 197 -208 206 -286 305 -313 396 -27 93
-164 222 -392 369 -115 74 -205 122 -228 122 -7 0 -18 -10 -24 -22z"/>
<path d="M671 3599 c-99 -19 -116 -55 -72 -142 99 -193 555 -649 836 -834 224
-149 622 -277 862 -278 98 0 115 3 140 21 60 44 37 96 -64 146 -129 63 -291
202 -506 433 -146 158 -269 307 -334 408 -66 101 -154 152 -348 201 -186 47
-406 66 -514 45z"/>
<path d="M4918 3586 c-150 -53 -340 -174 -431 -275 -32 -36 -52 -71 -63 -107
-27 -95 -87 -169 -330 -411 -129 -128 -234 -235 -234 -238 0 -11 268 -4 340 9
239 43 475 213 638 460 117 178 249 518 220 570 -13 23 -61 20 -140 -8z"/>
<path d="M5885 3586 c-111 -17 -177 -33 -232 -58 -54 -25 -157 -141 -327 -368
-154 -206 -307 -364 -482 -497 -139 -106 -244 -204 -268 -252 -27 -51 -8 -64
89 -63 194 3 590 115 850 243 155 75 247 149 495 398 262 263 429 474 430 542
0 21 -8 31 -37 45 -33 16 -66 19 -233 21 -119 1 -230 -3 -285 -11z"/>
<path d="M6036 2540 c-137 -29 -239 -66 -381 -135 -173 -84 -427 -227 -433
-243 -6 -18 65 -82 116 -104 76 -34 181 -48 397 -55 322 -9 696 22 990 82 211
44 307 85 313 137 12 105 -509 318 -818 333 -71 4 -117 0 -184 -15z"/>
<path d="M655 2531 c-138 -25 -272 -63 -389 -110 -347 -142 -353 -230 -21
-326 264 -76 529 -109 885 -109 285 0 412 13 540 56 65 21 120 63 120 91 0 60
-317 230 -625 337 -247 85 -323 94 -510 61z"/>
<path d="M3347 2470 c-161 -41 -294 -198 -333 -396 -26 -131 -5 -259 86 -534
89 -268 239 -612 309 -707 49 -68 82 -56 158 57 115 171 303 648 349 887 24
122 25 339 2 413 -41 132 -127 222 -248 261 -73 24 -259 35 -323 19z"/>
<path d="M2500 2173 c-268 -65 -534 -151 -593 -191 -107 -74 -281 -297 -328
-421 -27 -71 -34 -138 -17 -171 37 -70 166 -77 338 -20 219 73 525 248 701
403 110 96 162 157 201 234 26 53 30 71 26 117 -6 73 -29 106 -71 105 -17 0
-133 -25 -257 -56z"/>
<path d="M4190 2187 c-43 -15 -73 -67 -64 -112 26 -123 192 -292 454 -465 167
-109 349 -194 509 -236 151 -39 337 -31 366 17 18 28 4 85 -41 167 -65 121
-163 266 -231 344 -121 137 -178 166 -361 179 -183 12 -239 23 -417 79 -114
35 -171 42 -215 27z"/>
</g>
</svg>
